<svg xmlns="http://www.w3.org/2000/svg" viewBox="0 0 192 192" width="192" height="192">
  <defs>
    <linearGradient id="bg" x1="0%" y1="0%" x2="100%" y2="100%">
      <stop offset="0%" style="stop-color:#FFB5C5"/>
      <stop offset="50%" style="stop-color:#E8A0BF"/>
      <stop offset="100%" style="stop-color:#DDA0DD"/>
    </linearGradient>
  </defs>
  <rect width="192" height="192" rx="40" fill="url(#bg)"/>
  <g transform="translate(96, 96)">
    <!-- Heart 1 -->
    <path d="M-25,-10 C-25,-25 -5,-25 -5,-10 C-5,-25 15,-25 15,-10 C15,10 -5,25 -5,25 C-5,25 -25,10 -25,-10 Z" 
          fill="white" opacity="0.9" transform="translate(-10, 5) scale(1.2)"/>
    <!-- Heart 2 -->
    <path d="M-25,-10 C-25,-25 -5,-25 -5,-10 C-5,-25 15,-25 15,-10 C15,10 -5,25 -5,25 C-5,25 -25,10 -25,-10 Z" 
          fill="white" transform="translate(15, -10) scale(0.9)"/>
  </g>
</svg>
